<svg width="50" height="50" viewBox="0 0 50 50" fill="none" xmlns="http://www.w3.org/2000/svg">
<g clip-path="url(#clip0_34_98)">
<path d="M24.7727 7.53472C25.767 8.64583 26.6477 9.6875 26.7614 9.89583C26.875 10.0694 27.2159 9.93056 27.6136 9.47917C28.5795 8.4375 30.0568 7.56944 30.767 7.70833C31.8182 7.88194 32.3864 9.82639 32.3864 13.1944V16.1111L34.5739 18.6111L36.7898 21.0764L36.875 23.9583C36.9602 26.1111 36.9034 26.9097 36.6193 27.1181C35.9091 27.6736 35.8239 27.4653 35.7386 24.9653L35.6534 22.5L31.1932 26.9444C28.7216 29.375 26.7045 31.4583 26.7045 31.5625C26.7045 31.7014 27.4148 32.4653 28.267 33.2986C29.7443 34.7222 30.2557 35.7639 29.4886 35.7639C29.3182 35.7639 28.4091 34.9653 27.5284 34.0278L25.8807 32.2569L24.4034 33.6806C22.4432 35.5556 21.3068 35.5903 19.4034 33.7153L18.0114 32.3611L16.8466 33.4722C16.2216 34.0625 14.1193 36.1111 12.2159 38.0208L8.69318 41.4931L18.4659 41.6667C25.9091 41.8056 28.2386 41.9444 28.3523 42.2569C28.4375 42.6042 26.3068 42.7083 18.267 42.7083C12.6705 42.7083 7.95455 42.5694 7.78409 42.4306C6.93182 41.7361 6.81818 40.5208 6.81818 31.4583C6.81818 26.1458 6.93182 21.875 7.10227 21.3542C7.41477 20.3125 7.47159 20.2431 9.74432 17.9167L11.3636 16.25V13.2986C11.3636 7.67361 12.7557 6.38889 15.7955 9.20139L16.6761 10.0347L18.7216 7.8125C20.483 5.83333 20.9091 5.55556 21.875 5.55556C22.8125 5.55556 23.2386 5.83333 24.7727 7.53472ZM36.9318 28.4722C36.9318 28.6806 36.4773 29.0972 35.9375 29.4097C34.9716 29.9653 33.8068 32.1528 33.8068 33.4028C33.8068 33.8194 35.0852 34.7222 35.6818 34.7222C35.7386 34.7222 35.7955 33.75 35.8523 32.5694C35.9091 30.8333 36.0227 30.3819 36.4489 30.2778C36.875 30.1736 36.9318 30.4514 36.9318 32.7083V35.2778L38.2955 35.7292C40.9375 36.6667 41.1364 37.5694 39.6875 42.5C39.0341 44.7222 38.608 45.6597 38.1818 45.8681C37.4148 46.1806 30.2273 43.3681 29.4602 42.3958C28.892 41.7014 28.892 41.7014 29.858 37.9514C30.767 34.4444 30.9091 34.1667 31.8466 33.5764C32.6136 33.125 32.9545 32.6389 33.2102 31.6319C33.5795 30.0347 35.2273 28.125 36.2216 28.125C36.6193 28.125 36.9318 28.2986 36.9318 28.4722ZM39.4318 29.2361C40.2841 30.3819 40.6534 31.8403 40.4545 33.1944C40.1705 35 39.4886 34.7222 39.4886 32.8125C39.4886 31.5972 39.3182 31.0417 38.6364 30.1042C38.1818 29.4444 37.8693 28.8194 37.983 28.6806C38.3239 28.2639 38.8068 28.4722 39.4318 29.2361Z" fill="white"/>
<path d="M19.4887 8.57639C18.4659 9.65278 17.6705 10.5903 17.7273 10.6944C17.8125 10.7639 18.8068 10.625 20 10.4167C21.6762 10.0694 22.5 10.0694 24.0057 10.4167C25.0284 10.6597 25.9375 10.7639 25.9943 10.6944C26.25 10.4167 22.3864 6.59722 21.875 6.59722C21.5909 6.59722 20.5114 7.5 19.4887 8.57639Z" fill="#31302F"/>
<path d="M29.6591 9.20139C29.1478 9.44444 28.2387 10.2431 27.5853 10.9375C26.4489 12.2222 26.3921 12.2222 25.1705 11.8403C24.4603 11.6319 22.983 11.4583 21.875 11.4583C20.7671 11.4583 19.2898 11.6319 18.5796 11.8403C17.358 12.2222 17.3012 12.1875 16.25 11.0417C15.0568 9.72222 13.5512 8.85417 12.9546 9.13194C12.4432 9.375 12.0739 12.5694 12.3012 14.8611C12.4148 16.0764 12.3012 16.8056 11.8466 17.8819C11.4205 18.8889 11.25 19.9653 11.25 21.7014L11.2216 24.0972L16.0512 28.8889C18.7216 31.5625 21.1648 33.7847 21.5341 33.9236C22.3296 34.1667 22.6989 33.8542 28.1534 28.4028L32.6705 23.9236V22.0486C32.6705 20.9722 32.4148 19.3056 32.0739 18.2292C31.6478 16.8403 31.4773 15.3472 31.4205 13.0208C31.3637 9.09722 31.0796 8.4375 29.6591 9.20139ZM15.0284 11.3194C15.5114 11.8056 15.9091 12.3264 15.9091 12.5C15.9091 12.6736 15.3978 13.2986 14.7443 13.9236C13.8068 14.8264 13.5228 14.9306 13.3239 14.5486C12.7841 13.5069 13.1534 10.4167 13.7784 10.4167C14.0057 10.4167 14.5455 10.8333 15.0284 11.3194ZM30.5114 10.9722C30.8523 12.0486 30.5966 14.9306 30.1421 14.9306C30.0568 14.9306 29.4603 14.375 28.8353 13.7153L27.6989 12.5L28.6364 11.4583C29.6591 10.3125 30.2557 10.1389 30.5114 10.9722ZM18.5512 19.8611C19.0341 20.6597 19.0625 20.9375 18.7784 21.8403C18.5796 22.3958 18.0398 23.0556 17.5853 23.2986C16.8466 23.6458 16.6193 23.6111 15.9659 23.0208C15 22.1528 14.8012 20.3819 15.5114 19.4097C16.25 18.4028 17.8125 18.6458 18.5512 19.8611ZM28.2387 19.4097C29.3466 20.9028 27.983 24.0278 26.4489 23.4375C25.0284 22.8819 24.4887 20.6944 25.483 19.375C26.0796 18.5417 27.6137 18.5764 28.2387 19.4097ZM23.2103 23.4722C23.2955 23.8194 23.0966 24.375 22.6137 24.9306L21.875 25.8681L21.1364 24.9306C20.0853 23.6806 20.3693 22.9167 21.875 22.9167C22.6705 22.9167 23.0966 23.0903 23.2103 23.4722ZM22.5568 26.9444C23.125 27.6389 23.1534 29.3056 22.5853 29.8611C21.8466 30.5903 20.7387 29.7569 20.7387 28.5069C20.7387 27.5347 21.3637 26.3889 21.875 26.3889C22.0171 26.3889 22.3296 26.6319 22.5568 26.9444Z" fill="#31302F"/>
<path d="M16.5341 21.0764C16.5909 21.4236 16.8182 21.7014 17.0455 21.7014C17.6705 21.7014 17.5568 20.6944 16.9603 20.5556C16.5625 20.4514 16.4489 20.5903 16.5341 21.0764Z" fill="#31302F"/>
<path d="M26.25 20.8681C26.1648 21.0764 26.1932 21.3889 26.3637 21.5972C26.733 22.0486 27.2728 21.6667 27.2728 20.9722C27.2728 20.4167 26.5341 20.3125 26.25 20.8681Z" fill="#31302F"/>
<path d="M9.26134 19.8958L8.15338 21.0417L9.11929 22.0139C9.80111 22.7083 10.1136 22.8819 10.142 22.5347C10.1704 22.1875 10.3977 18.6806 10.3693 18.75C10.3693 18.75 9.88634 19.2708 9.26134 19.8958Z" fill="#31302F"/>
<path d="M33.4659 20.8681L33.5795 22.9167L34.4034 22.2222C35.5966 21.1458 35.5966 20.9722 34.4602 19.8611L33.3807 18.8194L33.4659 20.8681Z" fill="#31302F"/>
<path d="M7.95453 31.5972V40.6597L9.60226 39.1319C12.2159 36.6667 16.9034 31.9097 16.9886 31.6319C17.0454 31.4236 10.2273 24.4792 8.46589 22.9861C7.98294 22.5347 7.95453 22.8472 7.95453 31.5972Z" fill="#08080A"/>
<path d="M30.8523 37.7431C30.4546 39.4444 30.1136 41.0764 30.1136 41.3889C30.1136 41.8056 31.0227 42.3264 33.6648 43.4028C35.5966 44.2014 37.4148 44.7917 37.6705 44.7222C38.1534 44.6181 39.7727 39.5139 39.7727 38.1597C39.7727 37.7083 38.9489 37.2222 36.2784 36.1458C34.375 35.3472 32.5568 34.7222 32.2159 34.7222C31.7046 34.7222 31.5057 35.2083 30.8523 37.7431ZM36.0227 38.5764C36.0796 39.0625 35.9091 39.6528 35.6818 39.9306C35.4261 40.1736 35.2273 40.7292 35.2273 41.2153C35.2273 41.9097 35.1136 42.0486 34.6023 41.9444C34.0909 41.875 33.9773 41.6319 34.0341 40.9722C34.0625 40.4861 34.0909 39.6528 34.0909 39.0972C34.0625 37.9514 34.5171 37.4653 35.3693 37.5694C35.7386 37.6389 35.9659 37.9861 36.0227 38.5764Z" fill="#31302F"/>
</g>
<defs>
<clipPath id="clip0_34_98">
<rect width="50" height="50" fill="white"/>
</clipPath>
</defs>
</svg>
