<svg width="50" height="50" viewBox="0 0 50 50" fill="none" xmlns="http://www.w3.org/2000/svg">
<path d="M41.2363 1.25747C40.1579 2.04216 38.0441 3.79615 36.6206 5.22704C34.7225 7.07335 33.7734 7.76571 33.2558 7.53492C32.8675 7.35029 30.1067 7.07335 27.1302 6.98103C22.9458 6.7964 21.0908 6.93487 18.9339 7.53492C13.671 8.96581 13.7142 8.96581 10.8671 6.75024C9.48664 5.68861 7.28659 4.25772 6.03558 3.61152C3.53357 2.36526 2.58453 2.59605 2.06687 4.58083C1.63549 6.15019 1.67863 13.0738 2.06687 15.8433C2.36884 17.7358 2.23942 18.6128 1.37666 21.1514C-0.693975 27.0135 -0.435146 33.4294 2.19628 38.7375C4.61202 43.6764 7.58856 46.1689 13.7573 48.4768C17.6829 49.9077 18.1143 50 24.5419 50C30.7538 49.9538 31.4871 49.8615 34.6793 48.7076C41.6677 46.0766 45.7659 42.6148 48.2679 37.1682C50.7267 31.7677 50.5542 24.5671 47.8365 18.8436C46.758 16.628 46.5855 15.6587 46.3698 10.766C46.1541 4.95009 45.5933 2.04216 44.4717 0.703583C43.6089 -0.31189 43.6089 -0.31189 41.2363 1.25747ZM43.5658 5.45782C44.1266 7.62724 43.9972 11.9199 43.3501 12.1968C42.6168 12.52 37.9578 9.10428 37.9147 8.22729C37.9147 7.85802 38.6481 6.7964 39.5108 5.78093C41.452 3.70383 43.0913 3.56536 43.5658 5.45782ZM6.76893 6.7964C7.6317 7.25797 8.83957 8.22729 9.4435 8.87349L10.4788 10.1198L8.14935 12.2892C5.51792 14.7355 4.65516 14.9663 4.22378 13.3046C3.57671 10.766 4.00809 5.9194 4.91399 5.9194C5.0434 5.9194 5.86303 6.33482 6.76893 6.7964ZM41.3658 26.9212C41.3658 27.3366 40.9344 27.8443 40.3736 28.1213C39.5971 28.4905 39.4245 28.9059 39.554 29.9214C39.9422 32.737 36.6206 34.1679 34.7225 31.9985C34.1617 31.3523 33.2989 30.8446 32.7813 30.8446C32.1342 30.8446 31.8754 30.6138 31.9616 30.106C32.0479 29.6906 33.5577 28.7675 35.7578 27.8443C39.9422 26.1365 41.3658 25.9057 41.3658 26.9212ZM13.973 29.0444C16.1299 29.5983 17.9849 30.2907 18.1574 30.5676C18.5457 31.2138 18.1574 31.7677 17.2515 31.7677C16.8633 31.7677 16.0868 32.3678 15.5691 33.1524C14.3181 34.9526 12.4632 35.0449 11.2122 33.3371C10.6945 32.6447 10.3063 31.6292 10.3063 31.0753C10.3063 30.4291 9.91802 29.8752 9.22781 29.5521C8.06308 28.9521 8.19249 27.4289 9.40036 27.7982C9.78861 27.9366 11.8592 28.4905 13.973 29.0444ZM27.9066 33.7063C28.6831 34.5372 28.5537 35.7834 27.5615 36.8451C26.3105 38.1836 26.4831 39.0606 28.2086 40.1223C29.0282 40.6761 29.7184 41.2762 29.7184 41.507C29.7184 42.4301 28.3812 42.4301 27.0007 41.5531C25.5772 40.6761 25.534 40.6761 24.585 41.507C23.3771 42.5686 21.5222 42.6609 21.5222 41.6916C21.5222 41.2762 21.9967 40.7685 22.5575 40.5377C23.1614 40.3069 23.8085 39.7068 24.0673 39.2453C24.4125 38.5529 24.283 38.1375 23.2477 37.0758C20.9614 34.7218 21.8673 33.2448 25.6635 33.1986C26.6125 33.1524 27.6047 33.3832 27.9066 33.7063Z" fill="#31302F"/>
</svg>
