<svg width="50" height="50" viewBox="0 0 50 50" fill="none" xmlns="http://www.w3.org/2000/svg">
<path d="M28.4877 2.45283C28.9815 3.49056 29.1358 4.66981 29.2284 8.5849C29.321 11.7924 29.5679 14.1509 29.9383 15.566C30.8333 19.0094 30.9877 20.7547 30.4012 20.7547C30.1543 20.7547 29.8457 20.3774 29.7531 19.9057C29.6605 19.4811 29.321 18.0189 28.9506 16.7453C28.4877 15 28.3025 13.1604 28.2407 9.66981C28.179 5.04716 27.7469 2.35849 27.0062 2.35849C26.5123 2.35849 24.0123 4.85849 23.0247 6.36792C22.2222 7.59434 22.1605 7.64151 20.2469 7.12264C17.5926 6.41509 15.7716 6.46226 13.2716 7.35849L11.1728 8.06604L9.66049 6.32075C7.80864 4.15094 6.35803 3.06604 5.77161 3.44339C5.15432 3.77358 4.90741 6.22641 4.93827 11.1792C4.96914 14.2453 4.84568 15.7547 4.47531 16.8868C3.27161 20.4717 3.67284 27.3113 5.30864 30.4245L5.95679 31.6981L6.66667 29.5755C7.25309 27.8302 7.34568 27.1698 7.09877 25.8962C6.91358 25 6.79012 23.4906 6.79012 22.5C6.79012 21.0377 6.94445 20.6132 7.59259 20.1887C8.20988 19.7641 8.51852 19.7641 8.98148 20.1887C9.75309 20.9434 9.75309 20.9434 10.1852 19.3868C10.8642 16.8396 11.4506 16.4151 13.5802 16.7925C15.2469 17.0755 15.5247 17.2641 15.8333 18.3491C16.0494 19.0094 16.4506 19.8585 16.7901 20.2358C17.2531 20.7547 17.3148 21.2736 17.1914 23.1604C17.0062 25.3774 17.037 25.4717 17.7469 25.4717C18.8272 25.4717 18.9815 26.3208 18.2407 27.8774C17.4074 29.6226 17.4074 30.1887 18.3333 30.1887C19.3827 30.1887 20.0617 30.6604 20.0617 31.4151C20.0617 31.8868 19.6914 31.9811 18.5494 31.7453C17.3148 31.5566 16.7901 31.6981 15.9259 32.4528C15.1852 33.1132 14.7531 33.3019 14.6296 32.9245C14.4136 32.4528 15.2161 31.1321 16.2654 30.2358C16.6667 29.9057 16.5432 28.3019 16.0802 28.3019C15.9877 28.3019 15.3395 29.2925 14.6605 30.566C13.3025 32.9717 12.0988 36.6038 12.4691 37.1698C12.5926 37.3585 14.3827 37.5 16.4506 37.5C19.4444 37.4528 20.5864 37.2641 22.0062 36.5094C23.6728 35.566 23.7654 35.566 23.7654 36.3679C23.7654 37.0283 23.2407 37.5 21.5741 38.2547C19.7222 39.1038 18.8889 39.2453 15.8025 39.0566C12.037 38.8208 11.1111 38.4906 11.1111 37.5C11.1111 36.1792 12.7778 31.2736 13.7346 29.8113C14.7531 28.2547 16.358 23.7264 16.358 22.4057C16.358 21.0849 15.7716 21.2264 15.2778 22.6415C15.0309 23.3962 14.6605 24.0566 14.5062 24.0566C13.9198 24.0566 13.9198 23.1132 14.537 21.5094C15.2161 19.7641 15.1543 18.3962 14.4136 18.3962C14.1975 18.3962 13.7037 19.3868 13.3025 20.566C12.8086 22.217 12.5309 22.6415 12.284 22.2642C12.0062 21.8396 12.037 21.3208 12.4074 20.0943C12.6852 19.1981 12.8395 18.3491 12.7469 18.2075C12.2222 17.4057 11.6667 18.2075 10.8025 20.7547C10.2778 22.3113 9.75309 23.5849 9.59877 23.5849C9.47531 23.5849 9.19753 23.066 9.01235 22.4057C8.82716 21.7453 8.51852 21.2264 8.33333 21.2264C7.74691 21.2264 7.62346 22.7358 8.02469 25.1415C8.39506 27.4057 8.39506 27.5943 7.37654 30.7547C6.82099 32.5 6.2037 33.9151 6.01852 33.8208C5.37037 33.4906 3.42593 29.0566 3.02469 26.934C2.46914 23.8679 2.53086 19.9528 3.24074 17.4528C3.67284 15.8491 3.82716 14.1038 3.85802 10.1415C3.88889 6.32075 4.01235 4.57547 4.41358 3.49057C5.33951 0.754715 6.14198 0.896225 9.35185 4.10377C11.4198 6.17924 11.4198 6.22641 12.9938 5.70755C14.9074 5.09434 19.2593 5.04716 20.6173 5.6132C21.5123 6.03773 21.7593 5.89622 22.6235 4.76415C25.6481 0.707542 27.3148 0.0471649 28.4877 2.45283ZM26.8519 5.6132C27.2531 6.79245 27.2531 10.7075 26.8519 11.0849C26.5123 11.4151 23.7654 8.67924 23.7654 8.01886C23.7654 7.54716 25.9259 4.71698 26.2963 4.71698C26.4198 4.71698 26.6667 5.14151 26.8519 5.6132ZM8.24074 6.88679C8.7963 7.54717 9.25926 8.34906 9.25926 8.63207C9.25926 9.5283 6.7284 12.3585 6.38889 11.8396C6.04938 11.3208 5.95679 7.0283 6.2963 6.22641C6.6358 5.37735 7.0679 5.51886 8.24074 6.88679ZM24.3827 19.3396C24.3827 19.5755 23.9198 20.0943 23.3951 20.4717C22.5 21.0377 22.4383 21.1321 22.9938 21.4623C24.784 22.4057 24.8457 23.4434 23.0864 23.2075C22.4691 23.1132 21.6667 23.2547 21.3272 23.5849C20.463 24.2925 20.1235 23.1132 20.8025 21.6509C21.7284 19.5755 24.3827 17.8774 24.3827 19.3396ZM28.7037 25C28.7037 27.2642 28.7963 27.8302 29.1975 27.8302C30.2778 27.8302 29.321 29.0094 28.1481 29.1509C27.1296 29.2453 26.8519 29.1509 26.8519 28.5849C26.8519 28.1604 27.0679 27.8302 27.3148 27.8302C27.6543 27.8302 27.7778 27.3113 27.7778 25.9434C27.7778 24.5755 27.6543 24.0566 27.3148 24.0566C26.6049 24.0566 26.7593 23.1604 27.5617 22.6415C28.6728 21.9811 28.7037 22.0283 28.7037 25ZM32.3457 22.7358C32.8704 23.5377 32.8086 24.717 32.0988 26.0849C31.7593 26.7453 31.4815 27.4057 31.4815 27.5472C31.4815 27.6887 31.7593 27.8302 32.0988 27.8302C32.4383 27.8302 32.716 28.1604 32.716 28.5377C32.716 29.0566 32.3457 29.2453 31.3272 29.2453C30.5247 29.2453 29.9383 29.0094 29.9383 28.7264C29.9383 28.4434 30.3704 27.4057 30.8642 26.4151C31.8827 24.434 32.037 23.5849 31.3272 23.5849C31.0802 23.5849 30.8642 23.7736 30.8642 24.0566C30.8642 24.2925 30.6481 24.5283 30.4012 24.5283C30.1543 24.5283 29.9383 24.2453 29.9383 23.9151C29.9383 23.0189 30.5864 22.1698 31.3272 22.1698C31.6975 22.1698 32.1296 22.4057 32.3457 22.7358ZM35.7099 22.7358C36.142 23.5377 36.142 27.9245 35.7407 28.6321C35.5556 28.9623 35.0926 29.2453 34.7222 29.2453C33.858 29.2453 33.0864 28.0189 33.5494 27.3113C33.7963 26.934 33.9506 26.9811 34.0741 27.3113C34.4136 28.066 35.1852 27.9245 35.1852 27.1226C35.1852 26.6981 34.9691 26.2736 34.7222 26.1321C34.4753 25.9434 34.2593 25.6604 34.2593 25.4245C34.2593 25.1887 34.4753 25 34.7222 25C34.9691 25 35.1852 24.6698 35.1852 24.2453C35.1852 23.6792 34.9691 23.5849 34.2593 23.8208C33.3025 24.1509 33.0556 23.7264 33.7037 22.7358C34.1975 21.9811 35.3395 22.0283 35.7099 22.7358ZM39.2593 24.6226C39.321 25.9906 39.321 27.5943 39.2593 28.1604C39.1049 29.3396 38.2716 29.6698 38.2716 28.5377C38.2716 28.1132 37.9938 27.8302 37.5309 27.8302C36.3272 27.8302 36.2963 27.0283 37.3457 24.5283C38.642 21.4623 39.1049 21.5094 39.2593 24.6226ZM42.5926 22.8774C42.5926 23.3019 42.3148 23.5849 41.821 23.5849C41.3889 23.5849 41.0494 23.7736 41.0494 24.0566C41.0494 24.2925 41.2963 24.5283 41.6049 24.5283C42.3457 24.5283 42.9012 25.4245 42.9012 26.6981C42.9012 28.9623 41.0802 30.0472 40.3086 28.2075C39.9074 27.217 40.3086 26.5094 40.8025 27.2641C41.358 28.1132 41.9753 27.9245 41.9753 26.8868C41.9753 26.1321 41.7593 25.9434 41.0494 25.9434C40.2161 25.9434 40.1235 25.8019 40.1235 24.3868C40.1235 22.4057 40.2778 22.1698 41.5741 22.1698C42.284 22.1698 42.5926 22.4057 42.5926 22.8774ZM45.679 22.6415C45.679 22.8774 45.3704 23.3491 45 23.6792L44.2901 24.2453L45.0309 24.5283C46.0185 24.8585 46.4198 25.9906 46.1728 27.5C45.9259 29.1038 44.6296 29.717 43.8889 28.5849C43.0864 27.3585 43.2099 24.1509 44.1049 23.066C44.8765 22.1226 45.679 21.8868 45.679 22.6415Z" fill="#31302F"/>
<path d="M37.8704 25.1887C37.7469 25.6604 37.7161 26.1792 37.8087 26.3207C38.0864 26.7453 38.3334 26.0377 38.2099 25.1415C38.1173 24.3396 38.0864 24.3396 37.8704 25.1887Z" fill="#F5F5F0"/>
<path d="M44.3519 26.2264C44.0741 26.6981 44.4753 27.8302 44.9383 27.8302C45.1852 27.8302 45.3704 27.4057 45.3704 26.8868C45.3704 25.9906 44.784 25.6132 44.3519 26.2264Z" fill="#F5F5F0"/>
<path d="M25.7716 34.434C25.5556 35.4717 25.6173 43.6792 25.8642 44.6698C25.9568 45.1415 28.3333 45.283 36.2654 45.283H46.5741L46.6667 39.9528C46.7284 37.0755 46.6975 34.3868 46.6358 34.0566C46.5741 33.6321 44.2284 33.4906 36.2654 33.4906C26.1728 33.4906 25.9568 33.4906 25.7716 34.434ZM28.2407 36.0849C28.2407 37.1226 27.284 37.6415 26.7901 36.8868C26.2654 36.0849 26.7593 34.8113 27.5309 35C27.9938 35.0943 28.2407 35.4717 28.2407 36.0849ZM30.3704 35.7075C30.6173 36.6981 30.1852 37.4057 29.4445 37.1698C28.8889 37.0283 28.6728 36.0849 28.9198 35.2358C29.1358 34.5755 30.1852 34.9057 30.3704 35.7075ZM32.5617 36.0849C32.5617 36.6981 32.3148 37.0755 31.8827 37.1698C31.2963 37.3113 31.1728 37.1226 31.1728 36.0849C31.1728 35.0472 31.2963 34.8585 31.8827 35C32.3148 35.0943 32.5617 35.4717 32.5617 36.0849ZM34.8148 35.9434C34.7531 36.6509 34.4753 37.0755 34.0432 37.1698C33.4568 37.3113 33.3333 37.1226 33.3333 36.1321C33.3333 35.1415 33.4877 34.9057 34.1358 34.9057C34.784 34.9057 34.9074 35.0943 34.8148 35.9434ZM37.037 36.0849C37.037 37.0283 36.8827 37.2642 36.2654 37.2642C35.6482 37.2642 35.4938 37.0283 35.4938 36.0849C35.4938 35.1415 35.6482 34.9057 36.2654 34.9057C36.8827 34.9057 37.037 35.1415 37.037 36.0849ZM39.1975 36.0849C39.1975 37.0283 39.0432 37.2642 38.4259 37.2642C37.8086 37.2642 37.6543 37.0283 37.6543 36.0849C37.6543 35.1415 37.8086 34.9057 38.4259 34.9057C39.0432 34.9057 39.1975 35.1415 39.1975 36.0849ZM41.358 36.0849C41.358 37.0283 41.2037 37.2642 40.5864 37.2642C39.9691 37.2642 39.8148 37.0283 39.8148 36.0849C39.8148 35.1415 39.9691 34.9057 40.5864 34.9057C41.2037 34.9057 41.358 35.1415 41.358 36.0849ZM43.5185 36.1321C43.5185 37.1226 43.3951 37.3113 42.8395 37.1698C42.3765 37.0755 42.0988 36.6509 42.037 35.9434C41.9445 35.0943 42.0679 34.9057 42.7161 34.9057C43.3642 34.9057 43.5185 35.1415 43.5185 36.1321ZM45.679 37.7358V40.566H44.4445C43.3642 40.566 43.2099 40.4245 43.2099 39.434C43.2099 38.7264 43.4259 38.2075 43.8272 38.066C44.2901 37.8774 44.4445 37.4057 44.4445 36.3679C44.4445 35.2358 44.5679 34.9057 45.0617 34.9057C45.6173 34.9057 45.679 35.2358 45.679 37.7358ZM29.321 39.3868C29.321 40.4245 29.1975 40.566 28.1173 40.566C26.821 40.566 26.358 40.0472 26.6667 38.9151C26.7593 38.4434 27.284 38.2075 28.0864 38.2075C29.1975 38.2075 29.321 38.3019 29.321 39.3868ZM31.4815 39.3868C31.4815 40.3302 31.3272 40.566 30.7099 40.566C30.0926 40.566 29.9383 40.3302 29.9383 39.3868C29.9383 38.4434 30.0926 38.2075 30.7099 38.2075C31.3272 38.2075 31.4815 38.4434 31.4815 39.3868ZM33.642 39.3868C33.642 40.3302 33.4877 40.566 32.8704 40.566C32.3148 40.566 32.0988 40.3302 32.0988 39.717C32.0988 38.5849 32.3457 38.2075 33.0864 38.2075C33.4877 38.2075 33.642 38.5377 33.642 39.3868ZM35.8025 39.3868C35.8025 40.2358 35.6482 40.566 35.2161 40.566C34.8765 40.566 34.5062 40.3302 34.4136 40.0943C34.0741 39.2453 34.5062 38.2075 35.1852 38.2075C35.6482 38.2075 35.8025 38.5377 35.8025 39.3868ZM37.963 39.3868C37.963 40.2358 37.8086 40.566 37.3765 40.566C37.037 40.566 36.6667 40.3302 36.5741 40.0943C36.2346 39.2453 36.6667 38.2075 37.3457 38.2075C37.8086 38.2075 37.963 38.5377 37.963 39.3868ZM40.1235 39.3868C40.1235 40.2358 39.9691 40.566 39.537 40.566C39.1975 40.566 38.8272 40.3302 38.7346 40.0943C38.3951 39.2453 38.8272 38.2075 39.5062 38.2075C39.9691 38.2075 40.1235 38.5377 40.1235 39.3868ZM42.4383 39.3868C42.4383 40.0943 42.2222 40.3302 41.6667 40.3302C40.9568 40.3302 40.6482 39.5283 40.9877 38.5377C41.2346 37.7358 42.4383 38.4434 42.4383 39.3868ZM28.3333 42.783C28.4259 43.7264 28.3025 43.8679 27.5 43.8679C26.7901 43.8679 26.5432 43.6321 26.5432 43.0189C26.5432 41.8396 26.8519 41.4623 27.6235 41.6038C27.9938 41.6981 28.2716 42.1698 28.3333 42.783ZM30.4938 42.783C30.5864 43.6792 30.463 43.8679 29.8148 43.8679C28.9198 43.8679 28.6111 43.3491 28.8889 42.217C29.1975 41.0849 30.3704 41.5094 30.4938 42.783ZM41.358 42.6887V43.8679H36.2654H31.1728V42.6887V41.5094H36.2654H41.358V42.6887ZM43.5185 42.6887C43.5185 43.6321 43.3642 43.8679 42.7469 43.8679C42.1914 43.8679 41.9753 43.6321 41.9753 43.0189C41.9753 41.8868 42.2222 41.5094 42.963 41.5094C43.3642 41.5094 43.5185 41.8396 43.5185 42.6887ZM45.7716 42.4057C45.9568 43.4906 45.7716 43.8679 45.0309 43.8679C44.3519 43.8679 44.0124 43.1132 44.2593 42.217C44.5062 41.1792 45.5864 41.3679 45.7716 42.4057Z" fill="#31302F"/>
</svg>
