<svg width="191" height="158" viewBox="0 0 191 158" fill="none" xmlns="http://www.w3.org/2000/svg">
<g clip-path="url(#clip0_35_127)">
<path d="M109.733 5.59998C112 8.66664 112.533 11.6 112.8 21.7333C112.933 30.8 113.733 36.2666 115.867 41.8666C119.2 50.9333 119.733 61.3333 116.667 61.3333C115.2 61.3333 114.667 59.8666 114.667 56.2666C114.533 53.6 113.333 48 111.867 44C109.867 38.9333 108.933 32.6666 108.533 23.7333C107.867 3.06664 106 1.86664 91.6 12.9333C84.4 18.4 83.4667 18.8 79.7333 17.4666C74.1333 15.4666 54.8 15.6 47.3333 17.6C41.7333 19.0666 41.2 19.0666 37.7333 15.7333C32.8 11.2 25.2 6.66664 22.4 6.66664C19.2 6.66664 18.1333 11.0666 18 24.6666C17.8667 31.2 17.0667 38.4 16.1333 40.6666C12.5333 49.3333 11.6 57.7333 13.7333 65.7333C14.8 70 15.0667 73.7333 14.5333 74.1333C8.53333 77.7333 6 56 10.6667 42.6666C12.4 37.8666 13.4667 31.0666 13.6 22.6666C14.2667 0.133301 20.8 -3.0667 37.8667 10.5333C41.0667 13.0667 44 14.4 45.2 13.8666C51.2 11.4666 65.2 10.6666 74.2667 12.1333L83.8667 13.7333L88.8 9.3333C94.5333 4.39996 100.933 1.19997 104.533 1.73331C105.867 1.86664 108.267 3.59998 109.733 5.59998ZM33.7333 18.4C36.1333 21.0667 36 21.2 30.1333 25.2C26.9333 27.4666 23.8667 29.3333 23.4667 29.3333C22.4 29.3333 22.4 14 23.4667 12.9333C24.6667 11.8666 30.8 15.0667 33.7333 18.4ZM103.733 20.4C104 25.3333 103.6 28 102.667 28C101.467 28 98.4 26 90.6667 20.2666C89.3333 19.2 98.9333 11.8666 101.067 12.2666C102.8 12.5333 103.467 14.4 103.733 20.4ZM158.667 47.6C162.8 50 165.333 54.4 165.333 59.2C165.333 60.9333 166.267 63.0666 167.333 64C169.867 66.1333 169.6 76.1333 167.067 77.0666C165.867 77.3333 165.333 75.7333 165.333 71.4666V65.3333H153.333H141.333V72C141.333 77.0666 140.8 78.6666 139.333 78.6666C137.733 78.6666 137.333 76.9333 137.333 71.3333C137.333 66 137.867 63.7333 139.333 63.2C140.533 62.6666 141.333 60.6666 141.333 58.1333C141.333 53.2 144.4 48.2666 148.533 46.6666C152.667 44.9333 154.533 45.0666 158.667 47.6ZM50.6667 50C57.2 53.3333 59.3333 56 55.3333 56C54.1333 56 53.3333 57.2 53.3333 59.2C53.3333 63.8666 50 66.1333 46 64.2666C42.2667 62.5333 41.3333 56.4 44.6667 55.2C47.4667 54.1333 47.2 52.4 44 51.3333C41.3333 50.5333 40.2667 46.6666 42.6667 46.6666C43.4667 46.6666 47.0667 48.1333 50.6667 50ZM98.6667 48.5333C98.6667 49.6 97.4667 50.8 96 51.3333C93.4667 52.1333 93.4667 52.2666 96.2667 56.1333L99.2 60L96.2667 62.9333C93.8667 65.4666 92.9333 65.6 90 64.2666C88 63.3333 86.6667 61.6 86.6667 59.8666C86.6667 58.2666 85.6 56.2666 84.4 55.3333C82.4 53.8666 82.9333 53.2 88.8 50.2666C96.2667 46.2666 98.6667 45.8666 98.6667 48.5333ZM76.9333 66C77.3333 67.2 76.6667 69.2 75.4667 70.5333C72.5333 73.8666 72.8 75.3333 76.8 77.2C82 79.4666 80 80.2666 68.1333 80.5333C56.5333 80.6666 54.4 78.9333 63.4667 76.8C70.2667 75.0666 70.2667 75.2 66.6667 71.3333C62.4 66.8 63.8667 64 70.6667 64C74.2667 64 76.4 64.6666 76.9333 66ZM124.533 65.8666C131.867 68.9333 136.4 78.5333 131.333 80.5333C130 81.0666 129.333 80.4 129.333 78.5333C129.333 74 126.8 70.8 122.133 69.6C116.267 67.8666 111.067 69.0666 108.667 72.4C106.133 76.1333 106.133 78 108.933 80.6666C111.067 82.8 111.2 82.8 112.267 80.1333C113.6 76.4 116 76.5333 116 80.5333C116 84.5333 119.6 86 122.667 83.3333C125.467 80.8 128 83.2 125.467 85.7333C124.667 86.5333 124 89.4666 124 92.2666C124 98.4 121.467 100 112.133 100H105.333V104.8C105.333 107.6 104.8 109.2 104 108.667C102 107.467 102.4 99.8666 104.533 97.4666C107.333 94.2666 107.6 86.4 104.933 82.6666C100.8 76.8 103.067 69.4666 109.867 66.1333C115.067 63.6 118.8 63.4666 124.533 65.8666ZM155.333 74.2666C153.733 82.8 151.733 83.3333 150.133 75.8666C149.2 70.8 150 69.3333 153.6 69.3333C156 69.3333 156.133 69.8666 155.333 74.2666ZM34.6667 78C36.6667 79.0666 39.6 81.4666 41.0667 83.3333L43.7333 86.6666H67.6H91.4667L95.0667 90.4C99.6 95.0666 99.6 96.4 94.8 100.4C92.6667 102.133 90.6667 105.067 90.4 106.8C90 109.6 89.3333 110 84 110C78.4 110 78 109.733 77.6 106.267C77.0667 102 75.2 101.467 74 105.333C72.8 109.067 66.1333 108.933 63.4667 105.2L61.4667 102.267L57.8667 105.2C55.2 107.333 52.6667 108 49.0667 107.867C44.9333 107.467 43.3333 108.267 39.2 112.4C22.1333 129.467 -5.6 109.067 4.8 87.0666C8.13333 80.1333 15.2 76 23.7333 76C27.6 76 32.5333 76.9333 34.6667 78ZM174 83.3333C176.267 85.4666 177.333 88 177.333 91.0666C177.333 94 178.133 96 179.333 96.5333C182 97.4666 182.267 119.2 179.733 118.4C178.533 118 177.867 114.4 177.6 108.267L177.2 98.8L165.6 98.4L154 98L153.6 93.2C152.667 82 166.267 75.4666 174 83.3333ZM147.733 86.1333C149.333 88 150.667 91.2 150.667 93.4666C150.667 95.7333 151.6 98.4 152.667 99.4666C153.733 100.667 154.667 103.867 154.667 106.533C154.667 109.467 153.867 112.4 152.667 113.333C150.933 114.8 150.667 114.133 150.667 108.133V101.333H138.667H126.667V105.333C126.667 108 126 109.333 124.667 109.333C123.333 109.333 122.667 108 122.667 105.467C122.667 103.333 123.6 100.667 124.667 99.4666C125.733 98.4 126.667 95.8666 126.667 93.7333C126.667 82.6666 140.267 77.7333 147.733 86.1333ZM103.067 88C102.267 90.9333 100.667 91.4666 99.3333 89.3333C98.2667 87.6 99.7333 85.3333 102 85.3333C103.067 85.3333 103.467 86.2666 103.067 88ZM120.4 110.267C120 112.667 118.933 114.667 118 114.667C115.733 114.667 114.267 105.067 116.4 103.733C118.933 102.133 121.067 105.6 120.4 110.267ZM169.067 105.6C169.467 107.333 168.667 108 166.267 108C162.4 108 161.333 107.067 162.267 104.4C163.333 101.867 168.533 102.8 169.067 105.6ZM142.267 107.333C142.667 108.533 142.667 109.867 142.133 110.267C140.933 111.6 134.4 108.133 135.333 106.667C136.667 104.533 141.333 105.067 142.267 107.333ZM107.067 113.333C108.933 114.933 110.8 118 111.333 120.933C111.867 123.733 112.8 126.667 113.467 127.6C114.267 128.4 114.667 134.133 114.4 140.267L114 151.333L100.8 151.733C92.2667 152 87.0667 151.6 85.8667 150.533C83.7333 148.8 83.2 130 85.2 128.8C85.8667 128.267 86.8 125.467 87.3333 122.4C89.2 111.867 99.2 107.2 107.067 113.333ZM140.133 114.533C142.667 117.067 144 119.867 144 122.267C144 124.4 144.667 126.8 145.467 127.6C146.267 128.4 147.467 131.067 148 133.6L149.067 138L149.2 133.067C149.333 130.4 150 127.733 150.667 127.333C151.467 126.933 152 124.667 152 122.533C152 116.8 158.4 110.667 164.4 110.667C170.667 110.667 176 115.733 176 121.733C176 124.267 176.933 127.067 178 128C180.533 130.133 180.8 148 178.4 150.4C176.667 152.133 155.333 152.667 151.467 151.2C150.133 150.667 149.333 148.667 149.2 146.133V142L147.6 146.667L146 151.333L132.8 151.733C124.267 152 119.067 151.6 117.867 150.533C115.2 148.267 115.333 130.267 118 128C119.067 127.067 120 124.933 120 123.067C120 111.733 132.133 106.533 140.133 114.533ZM117.333 120.667C117.333 121.867 116.533 122.267 115.333 121.867C114.267 121.333 113.333 120.533 113.333 119.867C113.333 119.2 114.267 118.667 115.333 118.667C116.4 118.667 117.333 119.6 117.333 120.667ZM149.333 121.333C149.333 122 148.8 122.667 148 122.667C147.333 122.667 146.667 122 146.667 121.333C146.667 120.533 147.333 120 148 120C148.8 120 149.333 120.533 149.333 121.333Z" fill="#F5F4F0"/>
<path d="M12.6667 84.4C4.93335 92.1333 4.80002 101.6 12.1334 109.067C19.7334 116.8 29.4667 116.4 37.6 107.867C41.8667 103.333 43.3334 102.667 48.4 102.667C51.6 102.667 55.3334 101.733 56.8 100.667C60.4 98 63.7334 98.2667 65.6 101.333C67.7334 104.8 70.2667 104.8 71.3334 101.2C72 99.0667 73.2 98.6667 76.4 98.9333C80 99.2 80.8 100 81.0667 102.933C81.3334 105.6 82.2667 106.667 84.1334 106.667C86 106.667 86.6667 105.733 86.6667 102.667C86.6667 99.7333 87.3334 98.6667 89.0667 98.6667C93.2 98.6667 94.9334 95.8667 92.4 93.0667C90.5334 90.9333 87.7334 90.6667 65.3334 90.6667H40.4L38.6667 87.2C36.1334 82.5333 30.6667 80 23.2 80C18 80 16.4 80.6667 12.6667 84.4ZM21.0667 91.4667C25.4667 94.5333 24.6667 101.467 19.7334 103.2C12.4 105.733 7.33335 95.8667 13.6 91.4667C17.3334 88.8 17.3334 88.8 21.0667 91.4667Z" fill="#08080A"/>
<path d="M95.3333 114.933C91.6 117.067 90.6667 118.8 90.8 123.333L90.9333 127.333L91.8667 123.2C93.4667 116.933 94.4 116 99.3333 116C104.267 116 105.2 116.933 106.8 123.2L107.733 127.333L107.867 123.067C108 120 107.067 118.133 104.533 116.133C100.533 112.933 99.0667 112.8 95.3333 114.933Z" fill="#F5F4F0"/>
<path d="M96.2667 120.267C95.3334 121.2 94.6667 122.933 94.6667 124.267C94.6667 126.133 95.7334 126.667 99.3334 126.667C104.267 126.667 104.933 125.467 102.667 121.2C101.067 118.267 98.6667 117.867 96.2667 120.267Z" fill="#F5F4F0"/>
<path d="M87.6 130.133C87.0667 130.667 86.6667 134.933 86.6667 139.6V148H99.3334H112.133L111.733 138.933L111.333 130L100 129.6C93.7334 129.467 88.1334 129.6 87.6 130.133ZM101.867 134.4C103.067 136.4 101.067 145.333 99.3334 145.333C97.6 145.333 95.6 136.4 96.8 134.4C97.7334 133.067 100.933 133.067 101.867 134.4Z" fill="#08080A"/>
<path d="M126 116.667C122.667 119.867 121.333 126.667 124 126.667C124.8 126.667 125.333 124.933 125.333 122.8C125.333 118.267 129.467 114.667 133.467 115.6C136.533 116.4 137.467 117.733 138.8 123.2L139.733 127.333L139.867 122.933C140 118 136.133 113.333 132 113.333C130.4 113.333 127.733 114.8 126 116.667Z" fill="#F5F4F0"/>
<path d="M158.667 116C156.933 117.733 156.133 120.267 156.133 122.933L156.4 127.333L156.933 123.333C157.733 118 159.6 116 163.867 116C168.533 116 170.667 118.267 170.667 122.933C170.667 124.933 171.333 126.667 172 126.667C174.667 126.667 173.333 119.867 170 116.667C166.133 112.667 162.267 112.4 158.667 116Z" fill="#F5F4F0"/>
<path d="M128.933 119.6C128.4 120 128 121.867 128 123.6C128 126.133 128.667 126.667 132 126.667C136 126.667 136.933 125.2 135.2 120.8C134.4 118.667 130.533 117.867 128.933 119.6Z" fill="#F5F4F0"/>
<path d="M160.933 119.467C160.4 120 160 121.867 160 123.6C160 126.133 160.667 126.667 164.133 126.667C167.733 126.667 168.133 126.267 167.733 122.933C167.333 119.467 163.2 117.2 160.933 119.467Z" fill="#F5F4F0"/>
<path d="M120 138.667V148H132H144V138.667V129.333H132H120V138.667ZM134 139.467C134 143.067 133.467 144.667 132.133 144.667C129.6 144.667 127.6 137.333 129.6 135.067C132.133 132 134 134 134 139.467Z" fill="#08080A"/>
<path d="M152.933 130.267C152.4 130.667 152 134.933 152 139.6V148H164H176V138.667V129.333H164.933C158.8 129.333 153.333 129.733 152.933 130.267ZM166.4 135.067C168.4 137.333 166.4 144.667 163.867 144.667C162.8 144.667 161.867 143.067 161.6 140.933C160.8 134.267 163.333 131.333 166.4 135.067Z" fill="#08080A"/>
</g>
<defs>
<clipPath id="clip0_35_127">
<rect width="190.667" height="157.333" fill="white"/>
</clipPath>
</defs>
</svg>
