<svg width="211" height="160" viewBox="0 0 211 160" fill="none" xmlns="http://www.w3.org/2000/svg">
<g clip-path="url(#clip0_47_2)">
<path d="M117.733 6.93333C121.467 9.86667 124 19.6 124 31.3333C124 39.6 124.667 43.8667 126.8 48.5333C129.333 54.5333 129.467 58.6667 126.933 58.6667C126.267 58.6667 124.4 55.2 122.667 50.9333C120 44.9333 119.333 40.8 119.2 30.6667C118.933 17.0667 117.333 10.6667 114 10.6667C110.533 10.6667 104.133 14.5333 98 20.2667C92.4 25.3333 92 25.4667 87.0667 24.1333C79.8667 22.1333 60.6667 22.4 52.4 24.5333L45.6 26.4L38.4 21.0667C29.3333 14.1333 22.8 11.3333 20.8 13.3333C20 14.1333 18.9333 22.1333 18.5333 31.7333C18 43.0667 16.9333 50.6667 15.4667 54.6667C13.6 59.2 13.2 63.2 13.6 70.8C14.2667 82.9333 17.8667 90.1333 27.4667 98.5333C47.3333 116 89.3333 115.733 110.533 97.8667C112.933 96 115.2 94.6667 115.6 95.2C117.467 96.9333 113.2 102.667 107.6 105.867C77.2 123.733 30.9333 116.667 15.3333 91.8667C8 80.4 6.26667 65.6 10.8 53.3333C12.8 47.8667 13.4667 42.1333 13.7333 30.6667C14 12.9333 16 8 22.4 8C26.5333 8 34.4 11.8667 41.4667 17.4667L46.2667 21.2L56.8 19.0667C65.6 17.3333 69.3333 17.2 79.2 18.4L91.0667 19.8667L96.4 15.3333C101.6 10.8 111.333 5.33334 114.133 5.33334C114.8 5.33334 116.533 6.13333 117.733 6.93333ZM113.333 19.8667C114.933 23.0667 115.067 32 113.467 34.5333C112.533 36 111.067 35.4667 106.133 32.1333C98.4 26.8 98.4 26 105.867 20.2667C110.533 16.6667 111.467 16.6667 113.333 19.8667ZM32.1333 22.2667C35.4667 24.2667 38.5333 28.9333 37.0667 29.8667C36.9333 30 34.4 31.7334 31.7333 33.7333C29.0667 35.7333 26.2667 37.3333 25.4667 37.3333C23.6 37.3333 22.2667 29.8667 23.2 24.5333C24.2667 19.3333 26.2667 18.8 32.1333 22.2667ZM48 53.0667C48 56.9333 38.1333 64 32.8 64C29.0667 64 30.5333 60.4 34.6667 59.4667C36.9333 59.0667 40 57.3333 41.7333 55.4667C44.6667 52.2667 48 51.0667 48 53.0667ZM104.4 54.9333C108.933 57.3333 106.667 58.6667 99.6 57.8667C95.2 57.3333 91.3333 57.6 89.6 58.5333C85.8667 60.5333 83.8667 57.6 87.4667 55.4667C93.2 52.1333 98.5333 51.8667 104.4 54.9333ZM179.333 60.9333C190.667 64.4 190.667 64.5333 190.667 85.3333V103.6L186.4 104.8C175.6 107.333 175.333 107.6 182.933 107.6C187.733 107.6 191.867 108.533 194 109.867C197.2 112 197.333 112.533 197.333 126.667C197.333 140.4 197.2 141.333 194.4 142.933C189.467 145.6 175.467 145.2 172.133 142.133C169.6 139.867 169.333 138.133 169.333 125.867C169.333 113.2 169.6 112 172.4 110C175.2 107.867 174.8 107.867 166.133 108.8C158.8 109.467 157.067 109.333 157.6 107.867C158 106.8 162.267 105.467 168.8 104.533C183.6 102.4 186.267 100.933 186.933 94.5333C187.333 90.2667 187.067 89.4667 185.333 90.1333C182.533 91.2 176.267 92.9333 171.067 93.8667C165.467 94.8 164.8 91.0667 170.4 90C185.867 86.6667 188.4 85.2 187.467 79.8667C187.067 78.1333 186.8 76.2667 186.8 75.7333C186.667 75.2 184.533 75.7333 181.867 76.8C179.333 77.8667 172.4 79.0667 166.533 79.6C160.8 80 156 80.9333 156 81.6C156 82.2667 157.2 85.0667 158.667 88L161.333 93.2L157.333 99.7333C152.533 107.6 152.533 108 156.4 114.667C158.667 118.8 160.133 120 163.067 120C165.333 120 166.667 120.667 166.667 122C166.667 123.2 165.467 124 163.733 124C161.6 124 159.867 125.6 157.733 129.333L154.933 134.667H160.8C165.067 134.667 166.667 135.2 166.667 136.667C166.667 141.333 131.6 138 123.333 132.533L120 130.4V98.6667C120 69.6 120.133 66.9333 122.533 64.8C130.133 57.8667 162.4 55.7333 179.333 60.9333ZM105.067 62.9333C109.067 66.9333 105.467 74 99.8667 73.0667C95.6 72.4 93.8667 68.9333 95.7333 64.8C97.4667 61.0667 102.267 60.1333 105.067 62.9333ZM53.0667 65.6C57.8667 70.4 51.6 78 45.4667 74.8C40.2667 72 42.6667 64 48.6667 64C50.2667 64 52.1333 64.6667 53.0667 65.6ZM78.1333 76.1333C78.5333 76.9333 77.7333 79.3333 76.1333 81.4667C72.5333 86.2667 72.5333 86.6667 77.0667 86.6667C82.5333 86.6667 86.6667 88.1333 86.6667 90C86.6667 91.2 84.4 91.7333 78.8 91.6C73.3333 91.6 69.2 92.4 65.2 94.4C62 96 58.9333 96.8 58.2667 96.1333C57.0667 94.9333 63.8667 89.3333 66.5333 89.3333C69.8667 89.3333 69.4667 85.3333 65.8667 82.2667C60.4 77.6 62.1333 74.6667 70.5333 74.6667C74.1333 74.6667 77.6 75.3333 78.1333 76.1333ZM49.6 127.067C58.1333 135.467 74.1333 142.533 86.8 143.6C96 144.4 113.333 141.867 113.333 139.867C113.333 139.2 112.533 138.667 111.467 138.667C109.333 138.667 106 134.933 107.067 133.733C108.4 132.533 120.133 137.333 120.933 139.467C121.867 142.133 117.333 153.333 115.2 153.333C112.933 153.333 112.933 152 114.667 147.467C115.333 145.6 115.733 144 115.6 144C115.467 144 112.4 144.933 108.8 146C100.267 148.667 83.7333 148.533 74.5333 145.867C61.8667 142.133 43.8667 130.267 45.8667 126.933C47.0667 124.933 47.4667 124.933 49.6 127.067Z" fill="#F5F4F0"/>
<path d="M144 62.6667C133.6 63.7333 124 66.8 124 69.3333C124 71.2 129.2 73.0667 140 74.9333C146.933 76.1333 148.933 76.9333 148.267 78.4C147.467 80.5333 137.867 79.7333 129.333 76.8L124.267 75.0667L123.733 79.6C123.2 83.6 123.733 84.4 127.2 86.2667C129.333 87.3333 135.6 89.0667 141.2 89.8667C147.2 90.8 151.333 92.1333 151.733 93.2C152.667 96 134.267 93.7333 125.2 90C123.333 89.3333 123.067 90 123.6 94.2667C124.267 100.667 125.067 101.067 140.4 104.533C142.4 105.067 144 106 144 106.667C144 108.667 135.733 108.267 129.467 106L124 104.133V109.2C124 113.6 124.533 114.533 127.733 115.867C133.467 118.133 142.8 119.867 149.067 120H154.933L151.467 114L147.867 108L152.8 100.4L157.6 92.9333L154.667 87.8667C152 83.0667 152 82.5333 154.133 79.3333C155.867 76.6667 157.467 76 161.6 76C168.133 76 185.067 72.2667 186.133 70.5333C189.467 64.9333 166.133 60.6667 144 62.6667Z" fill="#08080A"/>
<path d="M177.6 111.6C172 112.667 176.133 114.667 184.133 114.667C192.533 114.667 194.667 112.933 187.867 111.467C183.467 110.667 182.667 110.667 177.6 111.6Z" fill="#F5F4F0"/>
<path d="M173.6 119.867C174.533 124.667 193.333 125.067 193.333 120.267C193.333 118.4 191.867 118 183.333 118C175.333 118 173.333 118.4 173.6 119.867Z" fill="#08080A"/>
<path d="M124 123.867C124 128.267 124.533 129.2 127.733 130.533C132.933 132.533 142.667 134.533 147.733 134.667C151.467 134.667 152.4 134 154.133 130C155.067 127.467 156 125.2 156 124.933C156 124.667 151.333 124 145.733 123.6C140 123.2 132.8 121.867 129.733 120.8L124 118.8V123.867Z" fill="#08080A"/>
<path d="M173.6 129.333C174 130.933 176 131.333 183.333 131.333C190.667 131.333 192.667 130.933 193.067 129.333C193.333 127.6 191.6 127.2 183.333 127.2C175.067 127.2 173.333 127.6 173.6 129.333Z" fill="#08080A"/>
<path d="M173.333 137.067C173.333 140.667 185.6 142.667 190.8 140C196.267 137.067 193.6 135.333 183.333 135.333C176.133 135.333 173.333 135.867 173.333 137.067Z" fill="#08080A"/>
</g>
<defs>
<clipPath id="clip0_47_2">
<rect width="210.667" height="160" fill="white"/>
</clipPath>
</defs>
</svg>
