<svg width="50" height="50" viewBox="0 0 50 50" fill="none" xmlns="http://www.w3.org/2000/svg">
<path d="M3.68008 1.29231C3.00682 2.39317 2.87217 3.82908 2.7824 9.85989C2.69263 16.0343 2.55798 17.4702 1.83985 19.0018C0.448453 21.8736 -0.179919 25.8463 0.0444997 30.0583C0.403569 37.0942 4.30845 43.2208 10.3229 46.3319C19.7933 51.1661 30.0717 51.214 39.4075 46.5233C43.5816 44.4652 46.4991 41.4498 48.474 37.0464C49.9551 33.8874 50 33.5523 50 28.2395C50 23.2138 49.8653 22.4959 48.7433 19.8634C48.0251 18.2839 47.4865 16.6565 47.4865 16.2736C47.4416 15.8907 47.4865 13.1146 47.5314 10.1949C47.5763 4.69062 47.0826 1.48377 46.0502 0.526501C45.1974 -0.191452 41.8312 1.67522 38.1956 4.78635L35.3679 7.22739L32.5851 6.50944C29.4433 5.6479 22.3966 5.5043 19.2547 6.27012C14.2726 7.37098 14.6766 7.46671 12.0284 5.02567C9.78425 2.96754 5.56519 0 4.80217 0C4.62263 0 4.08403 0.57436 3.68008 1.29231ZM10.0984 6.5573C10.6819 7.13166 11.1756 7.89748 11.1756 8.23252C11.1308 8.56757 10.0087 9.76416 8.57239 10.865C5.38565 13.3539 4.89193 13.0667 4.89193 8.56757C4.89193 4.40344 5.61007 3.39831 7.67472 4.64276C8.39286 5.1214 9.51495 5.98294 10.0984 6.5573ZM44.8384 5.07353C45.4668 6.79662 45.377 11.1522 44.7486 12.1095C44.21 12.8274 43.9407 12.7317 41.6068 10.9129C40.1705 9.76416 39.0035 8.51971 39.0035 8.08894C39.0035 7.22739 42.8635 3.87695 43.8509 3.82908C44.1651 3.82908 44.614 4.40344 44.8384 5.07353ZM15.7089 27.3301C16.9208 28.6224 16.6514 30.4891 15.1703 31.7335C12.4324 33.8874 9.20076 29.9147 11.4898 27.1865C12.4773 26.0378 14.5419 26.0856 15.7089 27.3301ZM40.35 27.5694C41.5619 28.0959 42.1454 28.6224 42.1454 29.2446C42.1454 30.3455 42.0107 30.3455 39.587 29.3882C37.7916 28.6224 37.5223 28.6224 35.727 29.3882C33.3033 30.3455 33.1686 30.3455 33.1686 29.2446C33.1686 28.6703 33.7521 28.0959 34.8742 27.6173C37.0286 26.6121 38.1507 26.6121 40.35 27.5694ZM27.5133 32.8344C28.5905 33.2652 28.3661 35.084 27.1093 36.3763C25.8077 37.7165 25.7628 37.9558 26.7054 38.9609C27.6479 40.0139 29.4433 39.9182 30.341 38.7695C31.3284 37.5729 32.271 37.525 32.271 38.6737C32.271 40.9233 28.3661 42.4071 26.3014 40.9233C25.2242 40.2054 25.0447 40.2054 24.1021 40.8755C23.5635 41.3062 22.5761 41.6413 21.9477 41.6413C20.3319 41.6413 17.9082 39.9182 17.9082 38.7695C17.9082 37.525 18.8956 37.525 19.928 38.7695C20.9154 39.9182 22.5312 40.0139 23.4738 38.9609C24.4163 38.0036 24.3714 37.6686 23.2493 36.5677C21.7233 35.084 21.4091 34.1267 22.217 33.313C22.9352 32.5472 26.1219 32.26 27.5133 32.8344Z" fill="#F5F4F0"/>
</svg>
