<svg width="50" height="50" viewBox="0 0 50 50" fill="none" xmlns="http://www.w3.org/2000/svg">
<path d="M3.46038 1.8393C2.96002 3.2312 2.77807 5.36877 2.77807 10.0913C2.82356 15.6589 2.6871 16.7526 1.77735 19.0393C-2.45296 29.5282 1.09504 41.3097 10.0105 46.1814C21.5188 52.4449 36.848 50.8542 44.5354 42.5028C50.2213 36.3386 51.5859 27.1918 48.0834 18.9398C47.1282 16.6034 46.9917 15.6092 46.9462 10.0416C46.9462 2.88323 46.4004 0.347977 44.8083 0.0994225C43.5347 -0.0994186 40.396 1.8393 37.3939 4.77224C36.1657 5.9653 34.9831 6.95952 34.8011 6.95952C34.6192 6.90981 33.2545 6.61154 31.7535 6.21386C28.2055 5.26935 21.6098 5.26935 17.9708 6.21386C14.7867 7.05894 14.9687 7.10865 11.6026 4.126C9.00983 1.78959 6.05315 0 4.91597 0C4.50659 0 3.86977 0.795376 3.46038 1.8393ZM7.55423 4.02658C8.64593 4.67282 11.5116 7.45663 11.5116 7.95374C11.5116 8.10287 10.238 9.19651 8.7369 10.3896C6.55351 12.0797 5.87121 12.378 5.55279 11.8809C5.00695 10.9364 5.05244 5.61732 5.59828 4.42427C6.14413 3.33063 6.2351 3.28092 7.55423 4.02658ZM44.2625 4.42427C44.8083 5.61732 44.8538 10.9364 44.3079 11.8312C44.035 12.378 43.4892 12.1792 41.8971 10.837C40.7599 9.94217 39.4408 8.94795 38.9859 8.64968C38.1672 8.10287 38.1672 8.00344 39.2589 6.71096C40.396 5.36877 42.8069 3.47976 43.4437 3.47976C43.6256 3.47976 43.9895 3.92716 44.2625 4.42427ZM12.9217 29.3294C13.786 29.3294 15.0596 28.882 15.7874 28.3849C17.1975 27.341 17.8798 27.4404 17.8798 28.6334C17.8798 29.8762 15.1051 31.3178 12.7853 31.3178C11.0568 31.3178 10.329 31.0196 9.19178 29.9259C7.23582 28.0369 7.78167 26.8936 9.87409 28.3352C10.7383 28.882 12.103 29.3294 12.9217 29.3294ZM37.03 29.3294C37.8942 29.3294 39.1679 28.882 39.8957 28.3849C41.3058 27.341 41.9881 27.4404 41.9881 28.6334C41.9881 29.7271 39.2134 31.3178 37.3029 31.3178C35.256 31.3178 32.6177 30.1248 32.2538 28.9814C31.7535 27.5895 32.4813 27.2912 33.9823 28.3352C34.8466 28.882 36.2112 29.3294 37.03 29.3294ZM28.069 33.4057C28.4329 34.1016 28.2964 34.549 27.2047 35.7918C26.113 37.0346 25.9766 37.482 26.3405 38.1779C27.0683 39.4207 29.0697 39.5201 30.4343 38.3271C32.4813 36.5872 33.2091 37.9791 31.2986 40.0172C30.0249 41.4588 27.2957 41.7074 25.7946 40.564C25.0213 39.9675 24.7939 39.9675 24.0206 40.564C22.2011 42.0554 17.8798 40.6138 17.8798 38.4762C17.8798 37.5814 18.9715 37.5814 19.6993 38.5259C20.4726 39.5698 23.2928 39.5201 23.6567 38.4762C23.7932 38.0288 23.7477 37.3825 23.5203 37.0346C21.5188 34.1016 21.4279 33.8034 21.9737 33.008C22.838 31.9641 27.3867 32.2126 28.069 33.4057Z" fill="#F5F4F0"/>
</svg>
