<svg width="50" height="50" viewBox="0 0 50 50" fill="none" xmlns="http://www.w3.org/2000/svg">
<g clip-path="url(#clip0_64_12)">
<path d="M28.7762 1.77966C29.3706 2.75423 29.5105 3.68644 29.5804 6.90678C29.6154 9.78813 29.8252 11.5254 30.3846 13.3051C31.2587 16.1864 31.3986 19.4915 30.5944 19.4915C30.2098 19.4915 30.0699 19.0254 30.0699 17.8814C30.035 17.0339 29.7203 15.2542 29.3357 13.983C28.8112 12.3729 28.5664 10.3814 28.4615 7.54237C28.2867 0.974573 27.7972 0.593216 24.021 4.11017C22.1329 5.84745 21.8881 5.97457 20.9091 5.55085C19.4406 4.91525 14.3706 4.95762 12.4126 5.59322C10.9441 6.05932 10.8042 6.05932 9.8951 5C8.6014 3.55932 6.60839 2.11864 5.87413 2.11864C5.03497 2.11864 4.75524 3.51695 4.72028 7.83898C4.68531 9.91525 4.47552 12.2034 4.23077 12.9237C3.28671 15.678 3.04196 18.3475 3.6014 20.8898C3.88112 22.2458 3.95105 23.4322 3.81119 23.5593C2.23776 24.7034 1.57343 17.7966 2.7972 13.5593C3.25175 12.0339 3.53147 9.87288 3.56643 7.20339C3.74126 0.0423696 5.45455 -0.974579 9.93007 3.34746C10.7692 4.15254 11.5385 4.57627 11.8531 4.40678C13.4266 3.64406 17.0979 3.38983 19.4755 3.85593L21.993 4.3644L23.2867 2.9661C24.7902 1.3983 26.4685 0.381353 27.4126 0.550844C27.7622 0.593217 28.3916 1.14407 28.7762 1.77966ZM8.84615 5.84746C9.47552 6.69491 9.44056 6.73728 7.9021 8.00847C7.06294 8.72881 6.25874 9.32203 6.15385 9.32203C5.87413 9.32203 5.87413 4.44915 6.15385 4.11017C6.46853 3.77118 8.07692 4.78813 8.84615 5.84746ZM27.2028 6.48305C27.2727 8.05085 27.1678 8.8983 26.9231 8.8983C26.6084 8.8983 25.8042 8.26271 23.7762 6.44067C23.4266 6.10169 25.9441 3.77118 26.5035 3.8983C26.958 3.98305 27.1329 4.57627 27.2028 6.48305ZM41.6084 15.1271C42.6923 15.8898 43.3566 17.2881 43.3566 18.8136C43.3566 19.3644 43.6014 20.0424 43.8811 20.339C44.5455 21.0169 44.4755 24.1949 43.8112 24.4915C43.4965 24.5763 43.3566 24.0678 43.3566 22.7119V20.7627H40.2098H37.0629V22.8814C37.0629 24.4915 36.9231 25 36.5385 25C36.1189 25 36.014 24.4491 36.014 22.6695C36.014 20.9746 36.1538 20.2542 36.5385 20.0847C36.8531 19.9153 37.0629 19.2797 37.0629 18.4746C37.0629 16.9068 37.8671 15.339 38.9511 14.8305C40.035 14.2797 40.5245 14.322 41.6084 15.1271ZM13.2867 15.8898C15 16.9492 15.5594 17.7966 14.5105 17.7966C14.1958 17.7966 13.986 18.178 13.986 18.8136C13.986 20.2966 13.1119 21.0169 12.0629 20.4237C11.0839 19.8729 10.8392 17.9237 11.7133 17.5424C12.4476 17.2034 12.3776 16.6525 11.5385 16.3136C10.8392 16.0593 10.5594 14.8305 11.1888 14.8305C11.3986 14.8305 12.3427 15.2966 13.2867 15.8898ZM25.8741 15.4237C25.8741 15.7627 25.5594 16.1441 25.1748 16.3136C24.5105 16.5678 24.5105 16.6102 25.2448 17.839L26.014 19.0678L25.2448 20C24.6154 20.8051 24.3706 20.8475 23.6014 20.4237C23.0769 20.1271 22.7273 19.5763 22.7273 19.0254C22.7273 18.5169 22.4476 17.8814 22.1329 17.5847C21.6084 17.1186 21.7483 16.9068 23.2867 15.9746C25.2448 14.7034 25.8741 14.5763 25.8741 15.4237ZM20.1748 20.9746C20.2797 21.3559 20.1049 21.9915 19.7902 22.4153C19.021 23.4746 19.0909 23.9407 20.1399 24.5339C21.5035 25.2542 20.979 25.5085 17.8671 25.5932C14.8252 25.6356 14.2657 25.0847 16.6434 24.4068C18.4266 23.8559 18.4266 23.8983 17.4825 22.6695C16.3636 21.2288 16.7483 20.339 18.5315 20.339C19.4755 20.339 20.035 20.5508 20.1748 20.9746ZM32.6573 20.9322C34.5804 21.9068 35.7692 24.9576 34.4406 25.5932C34.0909 25.7627 33.9161 25.5508 33.9161 24.9576C33.9161 23.5169 33.2517 22.5 32.028 22.1186C30.4895 21.5678 29.1259 21.9492 28.4965 23.0085C27.8322 24.1949 27.8322 24.7881 28.5664 25.6356C29.1259 26.3136 29.1608 26.3136 29.4406 25.4661C29.7902 24.2797 30.4196 24.322 30.4196 25.5932C30.4196 26.8644 31.3636 27.3305 32.1678 26.483C32.9021 25.678 33.5664 26.4407 32.9021 27.2458C32.6923 27.5 32.5175 28.4322 32.5175 29.322C32.5175 31.2712 31.8531 31.7797 29.4056 31.7797H27.6224V33.3051C27.6224 34.1949 27.4825 34.7034 27.2727 34.5339C26.7483 34.1525 26.8531 31.7373 27.4126 30.9746C28.1469 29.9576 28.2168 27.4576 27.5175 26.2712C26.4336 24.4068 27.028 22.0763 28.8112 21.0169C30.1748 20.2119 31.1538 20.1695 32.6573 20.9322ZM40.7343 23.6017C40.3147 26.3136 39.7902 26.4831 39.3706 24.1102C39.1259 22.5 39.3357 22.0339 40.2797 22.0339C40.9091 22.0339 40.9441 22.2034 40.7343 23.6017ZM9.09091 24.7881C9.61538 25.1271 10.3846 25.8898 10.7692 26.483L11.4685 27.5424H17.7273H23.986L24.9301 28.7288C26.1189 30.2119 26.1189 30.6356 24.8601 31.9068C24.3007 32.4576 23.7762 33.3898 23.7063 33.9407C23.6014 34.8305 23.4266 34.9576 22.028 34.9576C20.5594 34.9576 20.4545 34.8729 20.3497 33.7712C20.2098 32.4153 19.7203 32.2458 19.4056 33.4746C19.0909 34.661 17.3427 34.6186 16.6434 33.4322L16.1189 32.5L15.1748 33.4322C14.4755 34.1102 13.8112 34.322 12.8671 34.2797C11.7832 34.1525 11.3636 34.4068 10.2797 35.7203C5.8042 41.1441 -1.46853 34.661 1.25874 27.6695C2.13287 25.4661 3.98601 24.1525 6.22378 24.1525C7.23776 24.1525 8.53147 24.4492 9.09091 24.7881ZM45.6294 26.483C46.2238 27.161 46.5035 27.9661 46.5035 28.9407C46.5035 29.8729 46.7133 30.5085 47.028 30.678C47.7273 30.9746 47.7972 37.8814 47.1329 37.6271C46.8182 37.5 46.6434 36.3559 46.5734 34.4068L46.4685 31.3983L43.4266 31.2712L40.3846 31.1441L40.2797 29.6186C40.035 26.0593 43.6014 23.983 45.6294 26.483ZM38.7413 27.3729C39.1608 27.9661 39.5105 28.983 39.5105 29.7034C39.5105 30.4237 39.7552 31.2712 40.035 31.6102C40.3147 31.9915 40.5594 33.0085 40.5594 33.8559C40.5594 34.7881 40.3497 35.7203 40.035 36.0169C39.5804 36.483 39.5105 36.2712 39.5105 34.3644V32.2034H36.3636H33.2168V33.4746C33.2168 34.322 33.042 34.7458 32.6923 34.7458C32.3427 34.7458 32.1678 34.322 32.1678 33.5169C32.1678 32.839 32.4126 31.9915 32.6923 31.6102C32.972 31.2712 33.2168 30.4661 33.2168 29.7881C33.2168 26.2712 36.7832 24.7034 38.7413 27.3729ZM27.028 27.9661C26.8182 28.8983 26.3986 29.0678 26.049 28.3898C25.7692 27.839 26.1538 27.1186 26.7483 27.1186C27.028 27.1186 27.1329 27.4153 27.028 27.9661ZM31.5734 35.0424C31.4685 35.8051 31.1888 36.4407 30.9441 36.4407C30.3497 36.4407 29.965 33.3898 30.5245 32.9661C31.1888 32.4576 31.7483 33.5593 31.5734 35.0424ZM44.3357 33.5593C44.4406 34.1102 44.2308 34.322 43.6014 34.322C42.5874 34.322 42.3077 34.0254 42.5524 33.178C42.8322 32.3729 44.1958 32.6695 44.3357 33.5593ZM37.3077 34.1102C37.4126 34.4915 37.4126 34.9153 37.2727 35.0424C36.958 35.4661 35.2448 34.3644 35.4895 33.8983C35.8392 33.2203 37.0629 33.3898 37.3077 34.1102ZM28.0769 36.0169C28.5664 36.5254 29.0559 37.5 29.1958 38.4322C29.3357 39.322 29.5804 40.2542 29.7552 40.5508C29.965 40.8051 30.0699 42.6271 30 44.5763L29.8951 48.0932L26.4336 48.2203C24.1958 48.3051 22.8322 48.178 22.5175 47.839C21.958 47.2881 21.8182 41.3136 22.3427 40.9322C22.5175 40.7627 22.7622 39.8729 22.9021 38.8983C23.3916 35.5508 26.014 34.0678 28.0769 36.0169ZM36.7483 36.3983C37.4126 37.2034 37.7622 38.0932 37.7622 38.8559C37.7622 39.5339 37.9371 40.2966 38.1469 40.5508C38.3566 40.8051 38.6713 41.6525 38.8112 42.4576L39.0909 43.8559L39.1259 42.2881C39.1608 41.4407 39.3357 40.5932 39.5105 40.4661C39.7203 40.339 39.8601 39.6186 39.8601 38.9407C39.8601 37.1186 41.5385 35.1695 43.1119 35.1695C44.7552 35.1695 46.1538 36.7797 46.1538 38.6864C46.1538 39.4915 46.3986 40.3814 46.6783 40.678C47.3427 41.3559 47.4126 47.0339 46.7832 47.7966C46.3287 48.3475 40.7343 48.5169 39.7203 48.0508C39.3706 47.8814 39.1608 47.2458 39.1259 46.4407V45.1271L38.7063 46.6102L38.2867 48.0932L34.8252 48.2203C32.5874 48.3051 31.2238 48.178 30.9091 47.839C30.2098 47.1186 30.2448 41.3983 30.9441 40.678C31.2238 40.3814 31.4685 39.7034 31.4685 39.1102C31.4685 35.5085 34.6504 33.8559 36.7483 36.3983ZM30.7692 38.3475C30.7692 38.7288 30.5594 38.8559 30.2448 38.7288C29.965 38.5593 29.7203 38.3051 29.7203 38.0932C29.7203 37.8814 29.965 37.7119 30.2448 37.7119C30.5245 37.7119 30.7692 38.0085 30.7692 38.3475ZM39.1608 38.5593C39.1608 38.7712 39.021 38.9831 38.8112 38.9831C38.6364 38.9831 38.4615 38.7712 38.4615 38.5593C38.4615 38.3051 38.6364 38.1356 38.8112 38.1356C39.021 38.1356 39.1608 38.3051 39.1608 38.5593Z" fill="#31302F"/>
<path d="M3.32171 26.822C1.29374 29.2796 1.25877 32.2881 3.18185 34.661C5.17485 37.1186 7.7273 36.9915 9.86017 34.2796C10.9791 32.839 11.3637 32.6271 12.6923 32.6271C13.5315 32.6271 14.5105 32.3305 14.8951 31.9915C15.8392 31.1441 16.7133 31.2288 17.2028 32.2034C17.7623 33.3051 18.4266 33.3051 18.7063 32.161C18.8811 31.483 19.1958 31.3559 20.035 31.4407C20.9791 31.5254 21.1888 31.7796 21.2588 32.7119C21.3287 33.5593 21.5735 33.8983 22.063 33.8983C22.5525 33.8983 22.7273 33.6017 22.7273 32.6271C22.7273 31.6949 22.9021 31.3559 23.3567 31.3559C24.4406 31.3559 24.8951 30.4661 24.2308 29.5763C23.7413 28.8983 23.007 28.8135 17.1329 28.8135H10.5944L10.1399 27.7119C9.47555 26.2288 8.04199 25.4237 6.08395 25.4237C4.72031 25.4237 4.30073 25.6356 3.32171 26.822ZM5.52451 29.0678C6.67835 30.0424 6.46856 32.2457 5.17485 32.7966C3.25178 33.6017 1.92311 30.4661 3.56646 29.0678C4.54548 28.2203 4.54548 28.2203 5.52451 29.0678Z" fill="#F5F5F0"/>
<path d="M25 36.5254C24.0209 37.2034 23.7762 37.7542 23.8112 39.1949L23.8461 40.4661L24.0909 39.1525C24.5105 37.161 24.7552 36.8644 26.0489 36.8644C27.3426 36.8644 27.5874 37.161 28.007 39.1525L28.2517 40.4661L28.2867 39.1102C28.3216 38.1356 28.0769 37.5424 27.4126 36.9068C26.3636 35.8898 25.979 35.8475 25 36.5254Z" fill="#31302F"/>
<path d="M25.2448 38.2203C25 38.517 24.8252 39.0678 24.8252 39.4915C24.8252 40.0848 25.1049 40.2542 26.049 40.2542C27.3427 40.2542 27.5175 39.8729 26.9231 38.517C26.5035 37.5848 25.8741 37.4576 25.2448 38.2203Z" fill="#31302F"/>
<path d="M22.9721 41.3559C22.8322 41.5254 22.7273 42.8814 22.7273 44.3644V47.0339H26.049H29.4056L29.3007 44.1525L29.1958 41.3136L26.2238 41.1864C24.5804 41.1441 23.1119 41.1864 22.9721 41.3559ZM26.7133 42.7119C27.028 43.3475 26.5035 46.1864 26.049 46.1864C25.5944 46.1864 25.07 43.3475 25.3846 42.7119C25.6294 42.2881 26.4686 42.2881 26.7133 42.7119Z" fill="#F5F5F0"/>
<path d="M33.0419 37.0763C32.1678 38.0932 31.8182 40.2542 32.5175 40.2542C32.7272 40.2542 32.8671 39.7034 32.8671 39.0254C32.8671 37.5847 33.951 36.4407 35 36.7373C35.8042 36.9915 36.0489 37.4152 36.3986 39.1525L36.6433 40.4661L36.6783 39.0678C36.7133 37.5 35.6993 36.0169 34.6154 36.0169C34.1958 36.0169 33.4965 36.483 33.0419 37.0763Z" fill="#31302F"/>
<path d="M41.6084 36.8644C41.1538 37.4152 40.944 38.2203 40.944 39.0678L41.014 40.4661L41.1538 39.1949C41.3636 37.5 41.8531 36.8644 42.972 36.8644C44.1958 36.8644 44.7552 37.5847 44.7552 39.0678C44.7552 39.7034 44.93 40.2542 45.1049 40.2542C45.8042 40.2542 45.4545 38.0932 44.5804 37.0763C43.5664 35.8051 42.5524 35.7203 41.6084 36.8644Z" fill="#31302F"/>
<path d="M33.8112 38.0085C33.6713 38.1356 33.5664 38.7288 33.5664 39.2797C33.5664 40.0848 33.7412 40.2542 34.6154 40.2542C35.6643 40.2542 35.9091 39.7881 35.4545 38.3898C35.2447 37.7119 34.2307 37.4576 33.8112 38.0085Z" fill="#31302F"/>
<path d="M42.2028 37.9661C42.063 38.1356 41.9581 38.7288 41.9581 39.2797C41.9581 40.0848 42.1329 40.2542 43.042 40.2542C43.986 40.2542 44.0909 40.1271 43.986 39.0678C43.8811 37.9661 42.7972 37.2458 42.2028 37.9661Z" fill="#31302F"/>
<path d="M31.4685 44.0678V47.0339H34.6154H37.7622V44.0678V41.1017H34.6154H31.4685V44.0678ZM35.1398 44.322C35.1398 45.4661 35 45.9746 34.6503 45.9746C33.986 45.9746 33.4615 43.6441 33.986 42.9237C34.6503 41.9492 35.1398 42.5848 35.1398 44.322Z" fill="#F5F5F0"/>
<path d="M40.1049 41.3983C39.965 41.5254 39.8601 42.8814 39.8601 44.3644V47.0339H43.007H46.1538V44.0678V41.1017H43.2517C41.6433 41.1017 40.2098 41.2288 40.1049 41.3983ZM43.6363 42.9237C44.1608 43.6441 43.6363 45.9746 42.972 45.9746C42.6923 45.9746 42.4475 45.4661 42.3776 44.7881C42.1678 42.6695 42.8321 41.7373 43.6363 42.9237Z" fill="#F5F5F0"/>
</g>
<defs>
<clipPath id="clip0_64_12">
<rect width="50" height="50" fill="white"/>
</clipPath>
</defs>
</svg>
