<svg width="50" height="50" viewBox="0 0 50 50" fill="none" xmlns="http://www.w3.org/2000/svg">
<path d="M38.5724 1.15191C37.5504 1.81998 35.6921 3.53189 34.4842 4.90978L32.2079 7.49853L29.1882 7.20625C25.5647 6.91397 18.7356 7.83256 15.4837 9.12693C12.6963 10.1708 11.7207 10.1708 10.0948 9.12693C8.09716 7.83256 3.03344 5.78661 1.82558 5.78661C1.12874 5.78661 0.617718 6.1624 0.292525 6.91397C-0.311405 8.33361 0.0602444 13.0101 1.03582 16.3921C1.68621 18.6469 1.68621 19.1062 0.989367 21.7367C-1.19407 29.7117 2.61533 37.6449 10.1877 41.027L12.6499 42.1544L13.2073 40.9853C13.5325 40.359 13.7648 39.2316 13.8113 38.5218C13.8113 36.9769 14.7404 36.1418 16.3664 36.1418C17.6671 36.1418 19.386 37.3109 19.386 38.2295C19.386 39.0646 20.0828 38.8976 22.7773 37.5197C25.3788 36.2253 27.6552 35.933 28.5843 36.7681C29.5599 37.6449 29.2347 39.4821 27.9804 40.5677C26.5867 41.6951 26.819 42.9477 28.3985 42.9477C30.1174 42.9477 35.5063 41.4028 38.7118 39.9832C42.7999 38.146 46.2841 35.265 48.1888 32.0081C49.5825 29.7117 49.8148 28.9184 49.9541 25.578C50.1864 21.1939 49.5825 18.9809 47.0739 15.2648C45.866 13.4276 45.355 12.1332 44.9833 9.37746C44.4259 5.82837 43.0786 1.56945 42.1031 0.525604C41.3133 -0.309479 40.6629 -0.184216 38.5724 1.15191ZM41.4062 4.6175C42.2424 6.41292 42.6141 9.29395 42.1495 10.0038C41.8243 10.4213 41.2204 10.296 39.2692 9.37746C35.274 7.45677 35.274 7.41502 37.5039 5.20206C38.5724 4.1582 39.7803 3.28137 40.1519 3.28137C40.5235 3.28137 41.081 3.90768 41.4062 4.6175ZM6.42474 9.54448C7.44677 10.0455 8.42235 10.7136 8.56172 11.0476C8.93337 11.9245 4.28775 16.1834 3.63737 15.5988C3.03344 15.0143 2.19723 10.6718 2.52242 9.58623C2.84761 8.45887 4.00902 8.45887 6.42474 9.54448ZM37.5039 17.6448C37.2252 17.9788 37.0393 18.6886 37.1323 19.2314C37.2252 19.983 37.5504 20.1918 38.6653 20.1918C39.7338 20.1918 40.059 19.983 40.2913 19.1479L40.57 18.1041L41.1275 19.0226C42.7534 21.6531 40.7094 24.5759 37.2716 24.5759C34.6701 24.5759 33.0906 23.1563 33.0906 20.7346C33.0906 19.3984 33.3693 18.8556 34.3913 18.0623C35.8779 16.9349 38.5259 16.6009 37.5039 17.6448ZM13.8113 21.4026C13.5325 21.7367 13.3467 22.4465 13.4396 22.9893C13.6254 24.3254 15.8553 24.5759 16.5986 23.3233C17.3419 22.0707 17.9923 22.697 17.9923 24.6177C17.9923 28.0415 13.6719 29.6282 10.6987 27.3317C8.0507 25.2857 9.67667 20.8181 13.0215 20.8181C14.1829 20.8181 14.2758 20.9016 13.8113 21.4026ZM29.0489 27.1647C29.1418 27.958 28.8166 28.6678 28.0268 29.3776C26.5402 30.7138 25.8434 30.7138 24.0316 29.1689C22.8238 28.1668 22.6844 27.8327 23.056 27.1229C23.6135 26.2043 24.8214 25.9121 27.2835 25.9956C28.6772 26.0373 28.9095 26.2043 29.0489 27.1647ZM31.4181 32.0499C32.6725 32.7597 31.6504 33.386 29.0489 33.5113C27.5623 33.5948 25.8899 33.9288 25.2395 34.3046C24.5891 34.7222 23.7529 35.0144 23.3812 35.0144C22.1269 35.0144 22.1269 34.2211 23.3348 33.5113C25.9828 31.9664 29.978 31.2148 31.4181 32.0499Z" fill="#31302F"/>
<path d="M15.6695 38.7723C15.6695 39.4821 15.3443 40.7347 14.9262 41.6116C13.6254 44.3673 13.3932 45.4112 13.8577 46.9143C14.8333 50.0877 19.2466 50.9645 23.6135 48.835C25.5182 47.9582 26.1686 47.3736 26.2615 46.5803C26.4009 45.7452 26.1686 45.4947 25.3788 45.3694C24.4033 45.2442 24.3568 45.2024 25.1001 44.5344C26.1221 43.6158 25.6111 42.5302 24.2174 42.5302C22.5915 42.5302 22.8238 41.8621 24.8678 40.693C27.2835 39.3151 28.1198 38.3965 27.2835 37.9372C26.4938 37.5197 25.4253 37.8537 21.9411 39.7744C18.6427 41.5698 17.9923 41.6116 17.9923 40.1919C17.9923 38.8141 17.2026 37.5197 16.3663 37.5197C15.9018 37.5197 15.6695 37.9372 15.6695 38.7723Z" fill="#31302F"/>
</svg>
